<?xml version="1.0" standalone="no"?>
<!DOCTYPE svg PUBLIC "-//W3C//DTD SVG 20010904//EN"
 "http://www.w3.org/TR/2001/REC-SVG-20010904/DTD/svg10.dtd">
<svg version="1.0" xmlns="http://www.w3.org/2000/svg"
 width="192.000000pt" height="192.000000pt" viewBox="0 0 192.000000 192.000000"
 preserveAspectRatio="xMidYMid meet">
<metadata>
Created by potrace 1.13, written by Peter Selinger 2001-2015
</metadata>
<g transform="translate(0.000000,192.000000) scale(0.100000,-0.100000)"
fill="#000000" stroke="none">
<path d="M0 960 l0 -960 960 0 960 0 0 960 0 960 -960 0 -960 0 0 -960z m927
824 c26 -9 52 -23 57 -31 5 -10 17 -13 40 -9 17 3 57 2 89 -4 35 -5 79 -5 114
0 61 10 183 -4 183 -21 0 -5 6 -9 13 -9 7 0 34 -23 60 -51 33 -36 49 -62 53
-90 4 -21 10 -39 15 -39 5 0 9 -22 9 -50 0 -27 -3 -50 -8 -50 -4 0 -13 -23
-20 -52 -6 -29 -19 -56 -27 -61 -21 -11 -21 -107 0 -107 8 0 15 5 15 10 0 6
32 10 75 10 43 0 75 -4 75 -10 0 -5 9 -10 19 -10 34 0 89 -62 102 -113 22 -88
-3 -387 -32 -387 -4 0 -11 -14 -14 -31 -4 -19 -28 -52 -60 -83 -75 -73 -80
-76 -139 -88 l-54 -12 -4 -114 c-2 -63 -9 -117 -15 -120 -6 -4 -13 -17 -17
-29 -11 -35 -74 -91 -114 -103 -52 -14 -845 -13 -897 1 -42 12 -99 64 -111
101 -4 13 -12 26 -18 30 -8 5 -12 159 -14 528 -3 440 -5 522 -17 527 -8 3 -20
32 -27 64 -7 32 -16 59 -20 59 -4 0 -8 14 -8 30 0 17 4 30 9 30 4 0 11 24 14
53 4 29 13 57 22 63 8 6 15 16 15 21 0 8 32 38 86 82 19 15 76 24 161 25 65 1
85 5 95 18 7 9 29 21 48 26 57 16 194 14 247 -4z"/>
<path d="M764 1651 c-16 -4 -41 -17 -55 -29 -13 -11 -35 -30 -48 -42 -19 -16
-32 -19 -60 -14 -20 4 -39 11 -42 16 -4 6 -26 10 -51 10 -35 1 -49 -4 -72 -27
-32 -32 -50 -85 -40 -117 10 -32 57 -76 89 -84 28 -7 105 13 105 28 0 32 110
25 135 -9 12 -16 26 -18 110 -15 97 2 128 -5 152 -37 7 -9 13 -24 13 -33 0
-10 5 -18 10 -18 6 0 10 -25 10 -55 0 -30 -4 -55 -8 -55 -5 0 -15 -52 -22
-115 -7 -63 -17 -115 -22 -115 -4 0 -8 -25 -8 -54 0 -45 5 -60 25 -82 22 -24
30 -26 80 -22 30 3 58 8 62 12 14 14 6 218 -8 226 -9 6 -13 46 -13 147 l-1
138 28 30 c27 28 35 30 100 31 105 2 104 2 131 29 27 27 42 81 32 113 -4 11
-21 34 -38 52 -25 26 -39 33 -70 33 -23 0 -44 -6 -48 -14 -12 -18 -118 -18
-129 0 -12 18 -121 18 -132 -1 -7 -10 -11 -10 -17 -1 -4 6 -20 15 -35 18 -15
4 -33 15 -40 25 -11 15 -34 26 -77 35 -8 1 -29 -1 -46 -4z"/>
<path d="M603 1227 c-24 -6 -43 -14 -43 -19 0 -13 -98 -9 -103 5 -3 6 -6 -189
-6 -435 -1 -287 3 -448 9 -448 5 0 12 -11 16 -24 6 -24 56 -46 107 -46 24 0
25 1 14 32 -7 18 -16 36 -22 40 -6 5 -11 149 -13 388 l-3 380 140 0 c77 0 142
3 144 8 3 4 7 32 11 62 3 30 3 49 0 43 -6 -15 -104 -18 -104 -4 0 5 -15 11
-32 14 -18 3 -42 7 -53 10 -11 2 -39 0 -62 -6z"/>
<path d="M1330 1210 c0 -5 -18 -10 -40 -10 l-40 0 0 -44 c0 -48 9 -56 61 -56
29 0 29 0 29 60 0 33 -2 60 -5 60 -3 0 -5 -4 -5 -10z"/>
<path d="M1525 1058 c-11 -6 -23 -16 -27 -22 -4 -6 -8 -95 -8 -198 0 -162 2
-188 15 -188 9 0 18 7 21 15 4 8 11 15 17 15 18 0 55 49 68 89 7 20 15 38 20
41 11 7 28 150 22 186 -12 76 -10 74 -61 74 -26 0 -56 -6 -67 -12z"/>
</g>
</svg>
